<?xml version="1.0" standalone="no"?>
<!DOCTYPE svg PUBLIC "-//W3C//DTD SVG 20010904//EN"
 "http://www.w3.org/TR/2001/REC-SVG-20010904/DTD/svg10.dtd">
<svg version="1.0" xmlns="http://www.w3.org/2000/svg"
 width="260.000000pt" height="260.000000pt" viewBox="0 0 260.000000 260.000000"
 preserveAspectRatio="xMidYMid meet">
<metadata>
Created by potrace 1.14, written by Peter Selinger 2001-2017
</metadata>
<g transform="translate(0.000000,260.000000) scale(0.100000,-0.100000)"
fill="#000000" stroke="none">
<path d="M1811 2395 c-77 -17 -180 -64 -209 -96 -50 -52 -6 -149 67 -149 20 0
46 6 57 14 68 48 223 70 328 46 254 -57 410 -318 341 -570 -10 -36 -18 -75
-18 -88 2 -57 67 -99 126 -79 80 27 121 293 72 462 -61 211 -239 389 -450 450
-77 23 -231 27 -314 10z"/>
<path d="M1220 1862 c-262 -31 -500 -207 -595 -440 l-23 -57 -59 -3 c-85 -4
-173 -27 -250 -64 -95 -46 -208 -159 -257 -255 l-36 -73 0 -194 c0 -192 1
-197 27 -253 15 -32 33 -64 40 -71 7 -7 13 -16 13 -20 0 -11 71 -84 121 -124
53 -44 150 -90 229 -109 78 -18 1564 -20 1660 -1 202 39 376 195 446 402 29
84 26 272 -5 360 -75 213 -244 355 -468 393 l-75 13 -23 55 c-72 177 -239 336
-420 399 -60 22 -72 25 -134 36 -38 7 -151 11 -191 6z m249 -211 c171 -59 294
-191 351 -375 27 -85 44 -97 152 -101 127 -6 219 -46 295 -128 133 -144 145
-359 29 -512 -57 -75 -104 -109 -193 -141 l-68 -24 -771 0 -770 0 -68 25
c-195 71 -299 256 -261 465 11 60 57 143 110 195 85 86 165 117 310 121 50 1
98 2 108 3 32 2 63 45 85 117 43 141 144 260 280 328 116 58 286 70 411 27z"/>
</g>
</svg>
